M48
; DRILL file {KiCad 5.1.12-84ad8e8a86~92~ubuntu20.04.1} date Tue Dec  7 15:47:04 2021
; FORMAT={-:-/ absolute / inch / decimal}
; #@! TF.CreationDate,2021-12-07T15:47:04+01:00
; #@! TF.GenerationSoftware,Kicad,Pcbnew,5.1.12-84ad8e8a86~92~ubuntu20.04.1
; #@! TF.FileFunction,Plated,1,2,PTH
FMAT,2
INCH
T1C0.0236
T2C0.0276
T3C0.0315
T4C0.0394
T5C0.0433
%
G90
G05
T1
X2.4311Y-2.1516
X2.5098Y-2.1516
T2
X2.6575Y-2.3535
X2.6575Y-2.6535
X2.8543Y-2.3535
X2.8543Y-2.6535
X3.3189Y-2.1142
X3.3228Y-2.7165
X3.6189Y-2.1142
X3.6228Y-2.7165
X3.7953Y-2.1575
X3.7953Y-2.4575
X3.9921Y-2.7165
X4.0Y-2.1181
X4.2921Y-2.7165
X4.3Y-2.1181
X4.6693Y-2.7205
X4.6732Y-2.122
X4.9693Y-2.7205
X4.9732Y-2.122
T3
X2.2283Y-1.9764
X2.2303Y-2.1516
X2.2303Y-2.3484
X2.4252Y-1.9764
X2.6575Y-2.1496
X2.8543Y-2.1496
X3.3189Y-2.263
X3.3189Y-2.563
X3.4189Y-2.263
X3.4189Y-2.563
X3.5189Y-2.263
X3.5189Y-2.563
X3.6189Y-2.263
X3.6189Y-2.563
X3.9961Y-2.2709
X3.9961Y-2.5709
X4.0961Y-2.2709
X4.0961Y-2.5709
X4.1961Y-2.2709
X4.1961Y-2.5709
X4.2961Y-2.2709
X4.2961Y-2.5709
X4.6693Y-2.2748
X4.6693Y-2.5748
X4.7693Y-2.2748
X4.7693Y-2.5748
X4.8693Y-2.2748
X4.8693Y-2.5748
X4.9693Y-2.2748
X4.9693Y-2.5748
T4
X2.4449Y-2.3587
X2.4449Y-2.4587
X3.0551Y-2.163
X3.0551Y-2.263
X3.0551Y-2.363
X3.0551Y-2.463
X3.0551Y-2.563
X3.1437Y-2.0748
X3.1772Y-2.3661
X3.1772Y-2.4646
X3.1772Y-2.563
X3.2165Y-2.1024
X3.7953Y-2.6165
X3.7953Y-2.7165
X4.4685Y-2.6165
X4.4685Y-2.7165
X4.4724Y-2.1496
X4.4724Y-2.2496
X5.1575Y-2.1496
X5.1575Y-2.2496
X5.1575Y-2.6008
X5.1575Y-2.7008
T5
X2.2697Y-2.5559
X2.2697Y-2.6559
X2.2697Y-2.7559
T0
M30
