M48
; DRILL file {KiCad (5.1.10-1-10_14)} date Thursday, October 07, 2021 at 01:31:01 PM
; FORMAT={-:-/ absolute / inch / decimal}
; #@! TF.CreationDate,2021-10-07T13:31:01+02:00
; #@! TF.GenerationSoftware,Kicad,Pcbnew,(5.1.10-1-10_14)
FMAT,2
INCH
T1C0.0236
T2C0.0276
T3C0.0315
T4C0.0394
T5C0.0433
%
G90
G05
T1
X1.0315Y-1.2795
X1.1102Y-1.2795
T2
X1.2638Y-0.9913
X1.2638Y-1.2913
X1.4685Y-0.9913
X1.4685Y-1.2913
X1.6969Y-0.7441
X1.7008Y-1.3465
X1.9969Y-0.7441
X2.0008Y-1.3465
X2.1378Y-0.8898
X2.1378Y-1.1898
X2.4764Y-1.3465
X2.4843Y-0.748
X2.7764Y-1.3465
X2.7843Y-0.748
X3.2087Y-1.3504
X3.2126Y-0.752
X3.5087Y-1.3504
X3.5126Y-0.752
T3
X0.8386Y-0.7835
X0.8386Y-1.0866
X0.8386Y-1.2835
X1.0354Y-0.7835
X1.2717Y-0.7874
X1.4685Y-0.7874
X1.6969Y-0.8929
X1.6969Y-1.1929
X1.7969Y-0.8929
X1.7969Y-1.1929
X1.8969Y-0.8929
X1.8969Y-1.1929
X1.9969Y-0.8929
X1.9969Y-1.1929
X2.4803Y-0.9008
X2.4803Y-1.2008
X2.5803Y-0.9008
X2.5803Y-1.2008
X2.6803Y-0.9008
X2.6803Y-1.2008
X2.7803Y-0.9008
X2.7803Y-1.2008
X3.2087Y-0.9047
X3.2087Y-1.2047
X3.3087Y-0.9047
X3.3087Y-1.2047
X3.4087Y-0.9047
X3.4087Y-1.2047
X3.5087Y-0.9047
X3.5087Y-1.2047
T4
X0.6181Y-1.7913
X0.626Y-0.6236
X0.626Y-0.7236
X0.626Y-0.8236
X0.626Y-0.9236
X0.626Y-1.0236
X0.6299Y-1.2346
X0.6299Y-1.3346
X2.1969Y-1.7913
X2.3031Y-1.2189
X2.3031Y-1.3189
X2.9567Y-0.7795
X2.9567Y-0.8795
X2.9567Y-1.215
X2.9567Y-1.315
X3.6969Y-0.7795
X3.6969Y-0.8795
X3.7008Y-1.2244
X3.7008Y-1.3244
X3.7205Y-1.7913
X3.7244Y-0.6063
T5
X1.2559Y-1.5378
X1.2559Y-1.6378
X1.2559Y-1.7378
T0
M30
