%TF.GenerationSoftware,KiCad,Pcbnew,(5.1.10-1-10_14)*%
%TF.CreationDate,2021-10-07T13:31:27+02:00*%
%TF.ProjectId,Venato,56656e61-746f-42e6-9b69-6361645f7063,rev?*%
%TF.SameCoordinates,Original*%
%TF.FileFunction,Copper,L2,Bot*%
%TF.FilePolarity,Positive*%
%FSLAX46Y46*%
G04 Gerber Fmt 4.6, Leading zero omitted, Abs format (unit mm)*
G04 Created by KiCad (PCBNEW (5.1.10-1-10_14)) date 2021-10-07 13:31:27*
%MOMM*%
%LPD*%
G01*
G04 APERTURE LIST*
%TA.AperFunction,ComponentPad*%
%ADD10O,1.600000X1.600000*%
%TD*%
%TA.AperFunction,ComponentPad*%
%ADD11R,1.600000X1.600000*%
%TD*%
%TA.AperFunction,ComponentPad*%
%ADD12O,2.000000X1.905000*%
%TD*%
%TA.AperFunction,ComponentPad*%
%ADD13R,2.000000X1.905000*%
%TD*%
%TA.AperFunction,ComponentPad*%
%ADD14O,1.400000X1.400000*%
%TD*%
%TA.AperFunction,ComponentPad*%
%ADD15C,1.400000*%
%TD*%
%TA.AperFunction,ComponentPad*%
%ADD16O,1.700000X1.700000*%
%TD*%
%TA.AperFunction,ComponentPad*%
%ADD17R,1.700000X1.700000*%
%TD*%
%TA.AperFunction,ComponentPad*%
%ADD18C,1.600000*%
%TD*%
%TA.AperFunction,ComponentPad*%
%ADD19C,1.200000*%
%TD*%
%TA.AperFunction,ComponentPad*%
%ADD20R,1.200000X1.200000*%
%TD*%
%TA.AperFunction,ViaPad*%
%ADD21C,1.500000*%
%TD*%
%TA.AperFunction,Conductor*%
%ADD22C,0.800000*%
%TD*%
G04 APERTURE END LIST*
D10*
%TO.P,U4,8*%
%TO.N,+3.3VA*%
X81500000Y-22980000D03*
%TO.P,U4,4*%
%TO.N,GND*%
X89120000Y-30600000D03*
%TO.P,U4,7*%
%TO.N,SENSE3*%
X84040000Y-22980000D03*
%TO.P,U4,3*%
%TO.N,VGND*%
X86580000Y-30600000D03*
%TO.P,U4,6*%
%TO.N,Net-(J5-Pad1)*%
X86580000Y-22980000D03*
%TO.P,U4,2*%
%TO.N,Net-(J3-Pad1)*%
X84040000Y-30600000D03*
%TO.P,U4,5*%
%TO.N,VGND*%
X89120000Y-22980000D03*
D11*
%TO.P,U4,1*%
%TO.N,SENSE4*%
X81500000Y-30600000D03*
%TD*%
D10*
%TO.P,U3,8*%
%TO.N,+3.3VA*%
X43100000Y-22680000D03*
%TO.P,U3,4*%
%TO.N,GND*%
X50720000Y-30300000D03*
%TO.P,U3,7*%
%TO.N,VGND*%
X45640000Y-22680000D03*
%TO.P,U3,3*%
X48180000Y-30300000D03*
%TO.P,U3,6*%
X48180000Y-22680000D03*
%TO.P,U3,2*%
%TO.N,Net-(J2-Pad1)*%
X45640000Y-30300000D03*
%TO.P,U3,5*%
%TO.N,Net-(R6-Pad2)*%
X50720000Y-22680000D03*
D11*
%TO.P,U3,1*%
%TO.N,SENSE2*%
X43100000Y-30300000D03*
%TD*%
D10*
%TO.P,U2,8*%
%TO.N,+3.3VA*%
X63000000Y-22880000D03*
%TO.P,U2,4*%
%TO.N,GND*%
X70620000Y-30500000D03*
%TO.P,U2,7*%
%TO.N,SENSE5*%
X65540000Y-22880000D03*
%TO.P,U2,3*%
%TO.N,VGND*%
X68080000Y-30500000D03*
%TO.P,U2,6*%
%TO.N,Net-(J4-Pad1)*%
X68080000Y-22880000D03*
%TO.P,U2,2*%
%TO.N,Net-(J1-Pad1)*%
X65540000Y-30500000D03*
%TO.P,U2,5*%
%TO.N,VGND*%
X70620000Y-22880000D03*
D11*
%TO.P,U2,1*%
%TO.N,SENSE1*%
X63000000Y-30500000D03*
%TD*%
D12*
%TO.P,U1,3*%
%TO.N,+5V*%
X31900000Y-39060000D03*
%TO.P,U1,2*%
%TO.N,+3.3VA*%
X31900000Y-41600000D03*
D13*
%TO.P,U1,1*%
%TO.N,Net-(R4-Pad2)*%
X31900000Y-44140000D03*
%TD*%
D14*
%TO.P,R9,2*%
%TO.N,Net-(J5-Pad1)*%
X89220000Y-19100000D03*
D15*
%TO.P,R9,1*%
%TO.N,SENSE3*%
X81600000Y-19100000D03*
%TD*%
D14*
%TO.P,R8,2*%
%TO.N,Net-(J4-Pad1)*%
X70720000Y-19000000D03*
D15*
%TO.P,R8,1*%
%TO.N,SENSE5*%
X63100000Y-19000000D03*
%TD*%
D14*
%TO.P,R7,2*%
%TO.N,GND*%
X54300000Y-30220000D03*
D15*
%TO.P,R7,1*%
%TO.N,Net-(R6-Pad2)*%
X54300000Y-22600000D03*
%TD*%
D14*
%TO.P,R6,2*%
%TO.N,Net-(R6-Pad2)*%
X50720000Y-18900000D03*
D15*
%TO.P,R6,1*%
%TO.N,+3.3VA*%
X43100000Y-18900000D03*
%TD*%
D14*
%TO.P,R5,2*%
%TO.N,GND*%
X37300000Y-25180000D03*
D15*
%TO.P,R5,1*%
%TO.N,Net-(R4-Pad2)*%
X37300000Y-32800000D03*
%TD*%
D14*
%TO.P,R4,2*%
%TO.N,Net-(R4-Pad2)*%
X32100000Y-32800000D03*
D15*
%TO.P,R4,1*%
%TO.N,+3.3VA*%
X32100000Y-25180000D03*
%TD*%
D14*
%TO.P,R3,2*%
%TO.N,Net-(J3-Pad1)*%
X89120000Y-34300000D03*
D15*
%TO.P,R3,1*%
%TO.N,SENSE4*%
X81500000Y-34300000D03*
%TD*%
D14*
%TO.P,R2,2*%
%TO.N,Net-(J2-Pad1)*%
X50820000Y-34200000D03*
D15*
%TO.P,R2,1*%
%TO.N,SENSE2*%
X43200000Y-34200000D03*
%TD*%
D14*
%TO.P,R1,2*%
%TO.N,Net-(J1-Pad1)*%
X70520000Y-34200000D03*
D15*
%TO.P,R1,1*%
%TO.N,SENSE1*%
X62900000Y-34200000D03*
%TD*%
D16*
%TO.P,J7,5*%
%TO.N,SENSE3*%
X15900000Y-15840000D03*
%TO.P,J7,4*%
%TO.N,SENSE5*%
X15900000Y-18380000D03*
%TO.P,J7,3*%
%TO.N,SENSE4*%
X15900000Y-20920000D03*
%TO.P,J7,2*%
%TO.N,SENSE1*%
X15900000Y-23460000D03*
D17*
%TO.P,J7,1*%
%TO.N,SENSE2*%
X15900000Y-26000000D03*
%TD*%
D16*
%TO.P,J6,2*%
%TO.N,GND*%
X16000000Y-31360000D03*
D17*
%TO.P,J6,1*%
%TO.N,+5V*%
X16000000Y-33900000D03*
%TD*%
D16*
%TO.P,J5,2*%
%TO.N,GND*%
X93900000Y-22340000D03*
D17*
%TO.P,J5,1*%
%TO.N,Net-(J5-Pad1)*%
X93900000Y-19800000D03*
%TD*%
D16*
%TO.P,J4,2*%
%TO.N,GND*%
X75100000Y-22340000D03*
D17*
%TO.P,J4,1*%
%TO.N,Net-(J4-Pad1)*%
X75100000Y-19800000D03*
%TD*%
D16*
%TO.P,J3,2*%
%TO.N,GND*%
X94000000Y-31100000D03*
D17*
%TO.P,J3,1*%
%TO.N,Net-(J3-Pad1)*%
X94000000Y-33640000D03*
%TD*%
D16*
%TO.P,J2,2*%
%TO.N,GND*%
X58500000Y-30960000D03*
D17*
%TO.P,J2,1*%
%TO.N,Net-(J2-Pad1)*%
X58500000Y-33500000D03*
%TD*%
D16*
%TO.P,J1,2*%
%TO.N,GND*%
X75100000Y-30860000D03*
D17*
%TO.P,J1,1*%
%TO.N,Net-(J1-Pad1)*%
X75100000Y-33400000D03*
%TD*%
D18*
%TO.P,C4,2*%
%TO.N,GND*%
X37300000Y-20000000D03*
%TO.P,C4,1*%
%TO.N,+3.3VA*%
X32300000Y-20000000D03*
%TD*%
%TO.P,C3,2*%
%TO.N,GND*%
X21300000Y-19900000D03*
%TO.P,C3,1*%
%TO.N,+3.3VA*%
X26300000Y-19900000D03*
%TD*%
D19*
%TO.P,C2,2*%
%TO.N,GND*%
X26200000Y-32500000D03*
D20*
%TO.P,C2,1*%
%TO.N,+3.3VA*%
X28200000Y-32500000D03*
%TD*%
D18*
%TO.P,C1,2*%
%TO.N,GND*%
X21300000Y-27600000D03*
%TO.P,C1,1*%
%TO.N,+5V*%
X21300000Y-32600000D03*
%TD*%
D21*
%TO.N,*%
X94500000Y-45500000D03*
X94600000Y-15400000D03*
X15700000Y-45500000D03*
X55800000Y-45500000D03*
%TD*%
D22*
%TO.N,GND*%
X50720000Y-30300000D02*
X52700000Y-30300000D01*
X21300000Y-27600000D02*
X21300000Y-19800000D01*
X37300000Y-22400000D02*
X37300000Y-19800000D01*
X37300000Y-25180000D02*
X37300000Y-22400000D01*
X54300000Y-30220000D02*
X57820000Y-30220000D01*
X57820000Y-30220000D02*
X58600000Y-31000000D01*
X74700000Y-30500000D02*
X75100000Y-30900000D01*
X89120000Y-30600000D02*
X93600000Y-30600000D01*
X93600000Y-30600000D02*
X94100000Y-31100000D01*
X94000000Y-22500000D02*
X93800000Y-22300000D01*
X52700000Y-30300000D02*
X54200000Y-30300000D01*
X72800000Y-30500000D02*
X74700000Y-30500000D01*
X70620000Y-30500000D02*
X72800000Y-30500000D01*
X94000000Y-26600000D02*
X94000000Y-22500000D01*
X94000000Y-31100000D02*
X94000000Y-28000000D01*
X94000000Y-28000000D02*
X94000000Y-26600000D01*
X17400000Y-31400000D02*
X16000000Y-31400000D01*
X17500000Y-31400000D02*
X17400000Y-31400000D01*
X21300000Y-27600000D02*
X17500000Y-31400000D01*
%TO.N,+5V*%
X16000000Y-33900000D02*
X20000000Y-33900000D01*
X20000000Y-33900000D02*
X21300000Y-32600000D01*
X31900000Y-39060000D02*
X27860000Y-39060000D01*
X27860000Y-39060000D02*
X21300000Y-32500000D01*
%TO.N,+3.3VA*%
X32300000Y-20000000D02*
X32300000Y-25000000D01*
X32300000Y-25000000D02*
X32100000Y-25200000D01*
X43100000Y-22680000D02*
X43100000Y-18900000D01*
X26300000Y-19900000D02*
X32200000Y-19900000D01*
X32200000Y-19900000D02*
X32300000Y-20000000D01*
X78800000Y-20200000D02*
X81500000Y-22900000D01*
X78800000Y-17300000D02*
X78800000Y-20200000D01*
X77100000Y-15600000D02*
X78800000Y-17300000D01*
X58320000Y-15600000D02*
X77100000Y-15600000D01*
X58200000Y-15600000D02*
X42580000Y-15600000D01*
X36700000Y-15600000D02*
X32300000Y-20000000D01*
X42500000Y-15600000D02*
X36700000Y-15600000D01*
X43100000Y-15700000D02*
X43100000Y-18800000D01*
X58200000Y-18080000D02*
X58200000Y-15600000D01*
X63000000Y-22880000D02*
X58200000Y-18080000D01*
X28700000Y-32400000D02*
X28200000Y-32400000D01*
X34800000Y-40800000D02*
X34800000Y-38500000D01*
X34800000Y-38500000D02*
X28700000Y-32400000D01*
X34000000Y-41600000D02*
X34800000Y-40800000D01*
X31900000Y-41600000D02*
X34000000Y-41600000D01*
X28200000Y-32500000D02*
X28200000Y-29100000D01*
X28200000Y-29100000D02*
X28200000Y-29000000D01*
X28200000Y-29000000D02*
X32100000Y-25100000D01*
%TO.N,Net-(J1-Pad1)*%
X70520000Y-34200000D02*
X67200000Y-34200000D01*
X67200000Y-34200000D02*
X65600000Y-32600000D01*
X65600000Y-32600000D02*
X65600000Y-30400000D01*
X70520000Y-34200000D02*
X74200000Y-34200000D01*
X74200000Y-34200000D02*
X75100000Y-33300000D01*
X75100000Y-33300000D02*
X75200000Y-33300000D01*
%TO.N,Net-(J2-Pad1)*%
X50820000Y-34200000D02*
X47200000Y-34200000D01*
X45600000Y-32600000D02*
X45600000Y-30300000D01*
X47200000Y-34200000D02*
X45600000Y-32600000D01*
X50820000Y-34200000D02*
X57800000Y-34200000D01*
X57800000Y-34200000D02*
X58600000Y-33400000D01*
%TO.N,Net-(J3-Pad1)*%
X89120000Y-34300000D02*
X86400000Y-34300000D01*
X84000000Y-32900000D02*
X84000000Y-30600000D01*
X85400000Y-34300000D02*
X84000000Y-32900000D01*
X86200000Y-34300000D02*
X85400000Y-34300000D01*
X89120000Y-34300000D02*
X93400000Y-34300000D01*
X93400000Y-34300000D02*
X94100000Y-33600000D01*
%TO.N,Net-(J4-Pad1)*%
X68900000Y-19000000D02*
X70700000Y-19000000D01*
X68080000Y-19720000D02*
X68800000Y-19000000D01*
X68080000Y-22880000D02*
X68080000Y-19720000D01*
X70720000Y-19000000D02*
X74400000Y-19000000D01*
X74400000Y-19000000D02*
X75100000Y-19700000D01*
%TO.N,Net-(J5-Pad1)*%
X87900000Y-19100000D02*
X89200000Y-19100000D01*
X86580000Y-20420000D02*
X87900000Y-19100000D01*
X86580000Y-22980000D02*
X86580000Y-20420000D01*
X89220000Y-19100000D02*
X93200000Y-19100000D01*
X93200000Y-19100000D02*
X93900000Y-19800000D01*
%TO.N,SENSE5*%
X64600000Y-19000000D02*
X63100000Y-19000000D01*
X65540000Y-19840000D02*
X64700000Y-19000000D01*
X65540000Y-22880000D02*
X65540000Y-19840000D01*
%TO.N,SENSE4*%
X81500000Y-34300000D02*
X81500000Y-30600000D01*
%TO.N,SENSE3*%
X83200000Y-19100000D02*
X81600000Y-19100000D01*
X83200000Y-19100000D02*
X83100000Y-19100000D01*
X84040000Y-19940000D02*
X83200000Y-19100000D01*
X84040000Y-22980000D02*
X84040000Y-19940000D01*
%TO.N,SENSE2*%
X43100000Y-34100000D02*
X43100000Y-30300000D01*
X43200000Y-34200000D02*
X43100000Y-34100000D01*
%TO.N,SENSE1*%
X62900000Y-34200000D02*
X62900000Y-30600000D01*
X62900000Y-30600000D02*
X63000000Y-30500000D01*
%TO.N,Net-(R4-Pad2)*%
X32100000Y-32800000D02*
X37300000Y-32800000D01*
X37300000Y-32800000D02*
X37300000Y-42400000D01*
X37300000Y-42400000D02*
X35600000Y-44100000D01*
X35600000Y-44100000D02*
X31900000Y-44100000D01*
%TO.N,Net-(R6-Pad2)*%
X54300000Y-22600000D02*
X50800000Y-22600000D01*
X50800000Y-22600000D02*
X50700000Y-22700000D01*
X50720000Y-22680000D02*
X50720000Y-18900000D01*
%TO.N,VGND*%
X86580000Y-30600000D02*
X86580000Y-27820000D01*
X45640000Y-22680000D02*
X48180000Y-22680000D01*
X48180000Y-22680000D02*
X48200000Y-22700000D01*
X48180000Y-22720000D02*
X48200000Y-22700000D01*
X70600000Y-25200000D02*
X70600000Y-22900000D01*
X68080000Y-30500000D02*
X68080000Y-27720000D01*
X68080000Y-27720000D02*
X70600000Y-25200000D01*
X70600000Y-25100000D02*
X72000000Y-26500000D01*
X89100000Y-25200000D02*
X89100000Y-22900000D01*
X86500000Y-27800000D02*
X89100000Y-25200000D01*
X66840000Y-26480000D02*
X68080000Y-27720000D01*
X48180000Y-26480000D02*
X66840000Y-26480000D01*
X48180000Y-30300000D02*
X48180000Y-26480000D01*
X48180000Y-26480000D02*
X48180000Y-22720000D01*
X85300000Y-26500000D02*
X86600000Y-27800000D01*
X72100000Y-26500000D02*
X85300000Y-26500000D01*
%TD*%
M02*
