%TF.GenerationSoftware,KiCad,Pcbnew,5.1.12-84ad8e8a86~92~ubuntu20.04.1*%
%TF.CreationDate,2021-12-07T15:47:01+01:00*%
%TF.ProjectId,Venato,56656e61-746f-42e6-9b69-6361645f7063,rev?*%
%TF.SameCoordinates,Original*%
%TF.FileFunction,Copper,L2,Bot*%
%TF.FilePolarity,Positive*%
%FSLAX46Y46*%
G04 Gerber Fmt 4.6, Leading zero omitted, Abs format (unit mm)*
G04 Created by KiCad (PCBNEW 5.1.12-84ad8e8a86~92~ubuntu20.04.1) date 2021-12-07 15:47:01*
%MOMM*%
%LPD*%
G01*
G04 APERTURE LIST*
%TA.AperFunction,ComponentPad*%
%ADD10O,1.400000X1.400000*%
%TD*%
%TA.AperFunction,ComponentPad*%
%ADD11C,1.400000*%
%TD*%
%TA.AperFunction,ComponentPad*%
%ADD12C,1.200000*%
%TD*%
%TA.AperFunction,ComponentPad*%
%ADD13R,1.200000X1.200000*%
%TD*%
%TA.AperFunction,ComponentPad*%
%ADD14O,2.000000X1.905000*%
%TD*%
%TA.AperFunction,ComponentPad*%
%ADD15R,2.000000X1.905000*%
%TD*%
%TA.AperFunction,ComponentPad*%
%ADD16C,1.600000*%
%TD*%
%TA.AperFunction,ComponentPad*%
%ADD17O,1.700000X1.700000*%
%TD*%
%TA.AperFunction,ComponentPad*%
%ADD18R,1.700000X1.700000*%
%TD*%
%TA.AperFunction,ComponentPad*%
%ADD19O,1.600000X1.600000*%
%TD*%
%TA.AperFunction,ComponentPad*%
%ADD20R,1.600000X1.600000*%
%TD*%
%TA.AperFunction,ViaPad*%
%ADD21C,1.700000*%
%TD*%
%TA.AperFunction,Conductor*%
%ADD22C,0.800000*%
%TD*%
G04 APERTURE END LIST*
D10*
%TO.P,R5,2*%
%TO.N,GND*%
X72500000Y-59780000D03*
D11*
%TO.P,R5,1*%
%TO.N,Net-(R4-Pad2)*%
X72500000Y-67400000D03*
%TD*%
D12*
%TO.P,C2,2*%
%TO.N,GND*%
X61750000Y-54650000D03*
D13*
%TO.P,C2,1*%
%TO.N,+3.3VA*%
X63750000Y-54650000D03*
%TD*%
D10*
%TO.P,R4,2*%
%TO.N,Net-(R4-Pad2)*%
X67500000Y-67400000D03*
D11*
%TO.P,R4,1*%
%TO.N,+3.3VA*%
X67500000Y-59780000D03*
%TD*%
D14*
%TO.P,U1,3*%
%TO.N,+5V*%
X57650000Y-64920000D03*
%TO.P,U1,2*%
%TO.N,+3.3VA*%
X57650000Y-67460000D03*
D15*
%TO.P,U1,1*%
%TO.N,Net-(R4-Pad2)*%
X57650000Y-70000000D03*
%TD*%
D16*
%TO.P,C1,2*%
%TO.N,GND*%
X56650000Y-54650000D03*
%TO.P,C1,1*%
%TO.N,+5V*%
X56650000Y-59650000D03*
%TD*%
%TO.P,C4,2*%
%TO.N,GND*%
X72500000Y-54600000D03*
%TO.P,C4,1*%
%TO.N,+3.3VA*%
X67500000Y-54600000D03*
%TD*%
%TO.P,C3,2*%
%TO.N,GND*%
X56600000Y-50200000D03*
%TO.P,C3,1*%
%TO.N,+3.3VA*%
X61600000Y-50200000D03*
%TD*%
D17*
%TO.P,J7,5*%
%TO.N,SENSE3*%
X77600000Y-54940000D03*
%TO.P,J7,4*%
%TO.N,SENSE5*%
X77600000Y-57480000D03*
%TO.P,J7,3*%
%TO.N,SENSE4*%
X77600000Y-60020000D03*
%TO.P,J7,2*%
%TO.N,SENSE1*%
X77600000Y-62560000D03*
D18*
%TO.P,J7,1*%
%TO.N,SENSE2*%
X77600000Y-65100000D03*
%TD*%
D19*
%TO.P,U4,8*%
%TO.N,+3.3VA*%
X118600000Y-57780000D03*
%TO.P,U4,4*%
%TO.N,GND*%
X126220000Y-65400000D03*
%TO.P,U4,7*%
%TO.N,SENSE3*%
X121140000Y-57780000D03*
%TO.P,U4,3*%
%TO.N,VGND*%
X123680000Y-65400000D03*
%TO.P,U4,6*%
%TO.N,Net-(J5-Pad1)*%
X123680000Y-57780000D03*
%TO.P,U4,2*%
%TO.N,Net-(J3-Pad1)*%
X121140000Y-65400000D03*
%TO.P,U4,5*%
%TO.N,VGND*%
X126220000Y-57780000D03*
D20*
%TO.P,U4,1*%
%TO.N,SENSE4*%
X118600000Y-65400000D03*
%TD*%
D19*
%TO.P,U3,8*%
%TO.N,+3.3VA*%
X84300000Y-57480000D03*
%TO.P,U3,4*%
%TO.N,GND*%
X91920000Y-65100000D03*
%TO.P,U3,7*%
%TO.N,VGND*%
X86840000Y-57480000D03*
%TO.P,U3,3*%
X89380000Y-65100000D03*
%TO.P,U3,6*%
X89380000Y-57480000D03*
%TO.P,U3,2*%
%TO.N,Net-(J2-Pad1)*%
X86840000Y-65100000D03*
%TO.P,U3,5*%
%TO.N,Net-(R6-Pad2)*%
X91920000Y-57480000D03*
D20*
%TO.P,U3,1*%
%TO.N,SENSE2*%
X84300000Y-65100000D03*
%TD*%
D19*
%TO.P,U2,8*%
%TO.N,+3.3VA*%
X101500000Y-57680000D03*
%TO.P,U2,4*%
%TO.N,GND*%
X109120000Y-65300000D03*
%TO.P,U2,7*%
%TO.N,SENSE5*%
X104040000Y-57680000D03*
%TO.P,U2,3*%
%TO.N,VGND*%
X106580000Y-65300000D03*
%TO.P,U2,6*%
%TO.N,Net-(J4-Pad1)*%
X106580000Y-57680000D03*
%TO.P,U2,2*%
%TO.N,Net-(J1-Pad1)*%
X104040000Y-65300000D03*
%TO.P,U2,5*%
%TO.N,VGND*%
X109120000Y-57680000D03*
D20*
%TO.P,U2,1*%
%TO.N,SENSE1*%
X101500000Y-65300000D03*
%TD*%
D10*
%TO.P,R9,2*%
%TO.N,Net-(J5-Pad1)*%
X126320000Y-53900000D03*
D11*
%TO.P,R9,1*%
%TO.N,SENSE3*%
X118700000Y-53900000D03*
%TD*%
D10*
%TO.P,R8,2*%
%TO.N,Net-(J4-Pad1)*%
X109220000Y-53800000D03*
D11*
%TO.P,R8,1*%
%TO.N,SENSE5*%
X101600000Y-53800000D03*
%TD*%
D10*
%TO.P,R7,2*%
%TO.N,GND*%
X96400000Y-62420000D03*
D11*
%TO.P,R7,1*%
%TO.N,Net-(R6-Pad2)*%
X96400000Y-54800000D03*
%TD*%
D10*
%TO.P,R6,2*%
%TO.N,Net-(R6-Pad2)*%
X91920000Y-53700000D03*
D11*
%TO.P,R6,1*%
%TO.N,+3.3VA*%
X84300000Y-53700000D03*
%TD*%
D10*
%TO.P,R3,2*%
%TO.N,Net-(J3-Pad1)*%
X126220000Y-69100000D03*
D11*
%TO.P,R3,1*%
%TO.N,SENSE4*%
X118600000Y-69100000D03*
%TD*%
D10*
%TO.P,R2,2*%
%TO.N,Net-(J2-Pad1)*%
X92020000Y-69000000D03*
D11*
%TO.P,R2,1*%
%TO.N,SENSE2*%
X84400000Y-69000000D03*
%TD*%
D10*
%TO.P,R1,2*%
%TO.N,Net-(J1-Pad1)*%
X109020000Y-69000000D03*
D11*
%TO.P,R1,1*%
%TO.N,SENSE1*%
X101400000Y-69000000D03*
%TD*%
D17*
%TO.P,J6,2*%
%TO.N,GND*%
X62100000Y-59910000D03*
D18*
%TO.P,J6,1*%
%TO.N,+5V*%
X62100000Y-62450000D03*
%TD*%
D17*
%TO.P,J5,2*%
%TO.N,GND*%
X131000000Y-57140000D03*
D18*
%TO.P,J5,1*%
%TO.N,Net-(J5-Pad1)*%
X131000000Y-54600000D03*
%TD*%
D17*
%TO.P,J4,2*%
%TO.N,GND*%
X113600000Y-57140000D03*
D18*
%TO.P,J4,1*%
%TO.N,Net-(J4-Pad1)*%
X113600000Y-54600000D03*
%TD*%
D17*
%TO.P,J3,2*%
%TO.N,GND*%
X131000000Y-66060000D03*
D18*
%TO.P,J3,1*%
%TO.N,Net-(J3-Pad1)*%
X131000000Y-68600000D03*
%TD*%
D17*
%TO.P,J2,2*%
%TO.N,GND*%
X96400000Y-66460000D03*
D18*
%TO.P,J2,1*%
%TO.N,Net-(J2-Pad1)*%
X96400000Y-69000000D03*
%TD*%
D17*
%TO.P,J1,2*%
%TO.N,GND*%
X113500000Y-66460000D03*
D18*
%TO.P,J1,1*%
%TO.N,Net-(J1-Pad1)*%
X113500000Y-69000000D03*
%TD*%
D21*
%TO.N,SENSE3*%
X79850000Y-52700000D03*
%TO.N,SENSE5*%
X81700000Y-53400000D03*
%TO.N,SENSE4*%
X80700000Y-60100000D03*
%TO.N,SENSE1*%
X80700000Y-62600000D03*
%TO.N,SENSE2*%
X80700000Y-65100000D03*
%TD*%
D22*
%TO.N,GND*%
X130340000Y-65400000D02*
X131000000Y-66060000D01*
X126220000Y-65400000D02*
X130340000Y-65400000D01*
X96400000Y-62420000D02*
X96400000Y-66460000D01*
X72500000Y-54600000D02*
X72500000Y-59780000D01*
X56650000Y-54650000D02*
X61750000Y-54650000D01*
X56650000Y-50350000D02*
X56500000Y-50200000D01*
X56650000Y-54650000D02*
X56650000Y-50350000D01*
%TO.N,+5V*%
X56650000Y-63920000D02*
X57650000Y-64920000D01*
X56650000Y-59650000D02*
X56650000Y-63920000D01*
X59630000Y-64920000D02*
X62100000Y-62450000D01*
X57650000Y-64920000D02*
X59630000Y-64920000D01*
%TO.N,+3.3VA*%
X84300000Y-57480000D02*
X84300000Y-53700000D01*
X98850000Y-55030000D02*
X98850000Y-53400000D01*
X101500000Y-57680000D02*
X98850000Y-55030000D01*
X98850000Y-53400000D02*
X96000000Y-50550000D01*
X71550000Y-50550000D02*
X67500000Y-54600000D01*
X61600000Y-50300000D02*
X61500000Y-50200000D01*
X84300000Y-50650000D02*
X84400000Y-50550000D01*
X84300000Y-53700000D02*
X84300000Y-50650000D01*
X84400000Y-50550000D02*
X71550000Y-50550000D01*
X96000000Y-50550000D02*
X84400000Y-50550000D01*
X67500000Y-59780000D02*
X67500000Y-54600000D01*
X63800000Y-54600000D02*
X63750000Y-54650000D01*
X67500000Y-54600000D02*
X63800000Y-54600000D01*
X57650000Y-67460000D02*
X63040000Y-67460000D01*
X67500000Y-63000000D02*
X67500000Y-59780000D01*
X63040000Y-67460000D02*
X67500000Y-63000000D01*
X63750000Y-52350000D02*
X61600000Y-50200000D01*
X63750000Y-54650000D02*
X63750000Y-52350000D01*
%TO.N,Net-(J1-Pad1)*%
X109020000Y-69000000D02*
X105700000Y-69000000D01*
X105700000Y-69000000D02*
X104100000Y-67400000D01*
X104100000Y-67400000D02*
X104100000Y-65200000D01*
X109020000Y-69000000D02*
X113500000Y-69000000D01*
%TO.N,Net-(J2-Pad1)*%
X92020000Y-69000000D02*
X88400000Y-69000000D01*
X86800000Y-67400000D02*
X86800000Y-65100000D01*
X88400000Y-69000000D02*
X86800000Y-67400000D01*
X92020000Y-69000000D02*
X96400000Y-69000000D01*
%TO.N,Net-(J3-Pad1)*%
X126220000Y-69100000D02*
X123500000Y-69100000D01*
X121100000Y-67700000D02*
X121100000Y-65400000D01*
X122500000Y-69100000D02*
X121100000Y-67700000D01*
X123300000Y-69100000D02*
X122500000Y-69100000D01*
X130500000Y-69100000D02*
X131200000Y-68400000D01*
X130500000Y-69100000D02*
X131000000Y-68600000D01*
X126220000Y-69100000D02*
X130500000Y-69100000D01*
%TO.N,Net-(J4-Pad1)*%
X107400000Y-53800000D02*
X109200000Y-53800000D01*
X106580000Y-54520000D02*
X107300000Y-53800000D01*
X106580000Y-57680000D02*
X106580000Y-54520000D01*
X109220000Y-53800000D02*
X112900000Y-53800000D01*
X112900000Y-53800000D02*
X113600000Y-54500000D01*
%TO.N,Net-(J5-Pad1)*%
X125000000Y-53900000D02*
X126300000Y-53900000D01*
X123680000Y-55220000D02*
X125000000Y-53900000D01*
X123680000Y-57780000D02*
X123680000Y-55220000D01*
X130300000Y-53900000D02*
X131000000Y-54600000D01*
X126320000Y-53900000D02*
X130300000Y-53900000D01*
%TO.N,SENSE5*%
X103100000Y-53800000D02*
X101600000Y-53800000D01*
X104040000Y-54640000D02*
X103200000Y-53800000D01*
X104040000Y-57680000D02*
X104040000Y-54640000D01*
%TO.N,SENSE4*%
X118600000Y-69100000D02*
X118600000Y-65400000D01*
%TO.N,SENSE3*%
X120300000Y-53900000D02*
X118700000Y-53900000D01*
X120300000Y-53900000D02*
X120200000Y-53900000D01*
X121140000Y-54740000D02*
X120300000Y-53900000D01*
X121140000Y-57780000D02*
X121140000Y-54740000D01*
%TO.N,SENSE5*%
X81680000Y-53400000D02*
X77600000Y-57480000D01*
X81700000Y-53400000D02*
X81680000Y-53400000D01*
%TO.N,SENSE4*%
X77680000Y-60100000D02*
X77600000Y-60020000D01*
X80700000Y-60100000D02*
X77680000Y-60100000D01*
%TO.N,SENSE3*%
X79840000Y-52700000D02*
X77600000Y-54940000D01*
X79850000Y-52700000D02*
X79840000Y-52700000D01*
%TO.N,SENSE2*%
X84300000Y-68900000D02*
X84300000Y-65100000D01*
X84400000Y-69000000D02*
X84300000Y-68900000D01*
%TO.N,SENSE1*%
X101400000Y-69000000D02*
X101400000Y-65400000D01*
X101400000Y-65400000D02*
X101500000Y-65300000D01*
%TO.N,SENSE2*%
X80700000Y-65100000D02*
X77600000Y-65100000D01*
%TO.N,SENSE1*%
X77640000Y-62600000D02*
X77600000Y-62560000D01*
X80700000Y-62600000D02*
X77640000Y-62600000D01*
%TO.N,Net-(R4-Pad2)*%
X67500000Y-67400000D02*
X72500000Y-67400000D01*
X64900000Y-70000000D02*
X67500000Y-67400000D01*
X57650000Y-70000000D02*
X64900000Y-70000000D01*
%TO.N,Net-(R6-Pad2)*%
X92000000Y-57400000D02*
X91900000Y-57500000D01*
X91920000Y-57480000D02*
X91920000Y-53700000D01*
X95300000Y-53700000D02*
X96400000Y-54800000D01*
X91920000Y-53700000D02*
X95300000Y-53700000D01*
%TO.N,VGND*%
X123680000Y-65400000D02*
X123680000Y-62620000D01*
X86840000Y-57480000D02*
X89380000Y-57480000D01*
X89380000Y-57480000D02*
X89400000Y-57500000D01*
X89380000Y-57520000D02*
X89400000Y-57500000D01*
X109100000Y-60000000D02*
X109100000Y-57700000D01*
X106580000Y-65300000D02*
X106580000Y-62520000D01*
X106580000Y-62520000D02*
X109100000Y-60000000D01*
X109100000Y-59900000D02*
X110500000Y-61300000D01*
X126200000Y-60000000D02*
X126200000Y-57700000D01*
X123600000Y-62600000D02*
X126200000Y-60000000D01*
X105340000Y-61280000D02*
X106580000Y-62520000D01*
X89380000Y-65100000D02*
X89380000Y-61280000D01*
X122400000Y-61300000D02*
X123700000Y-62600000D01*
X110500000Y-61300000D02*
X122400000Y-61300000D01*
X105340000Y-61280000D02*
X99130000Y-61280000D01*
X97730000Y-59880000D02*
X89380000Y-59880000D01*
X99130000Y-61280000D02*
X97730000Y-59880000D01*
X89380000Y-59880000D02*
X89380000Y-57520000D01*
X89380000Y-61280000D02*
X89380000Y-59880000D01*
%TD*%
M02*
